<?xml version="1.0" encoding="UTF-8" standalone="no"?>
<!-- Created with Inkscape (http://www.inkscape.org/) -->

<svg
   width="210mm"
   height="189.83299mm"
   viewBox="0 0 210 189.83299"
   version="1.1"
   id="svg1"
   inkscape:version="1.4.3 (1:1.4.3+202512261035+0d15f75042)"
   sodipodi:docname="bicho do atleta.svg"
   inkscape:export-filename="Documentos/GitHub/bicho_do_atleta-site/public/img/bicho do atleta.webp"
   inkscape:export-xdpi="96"
   inkscape:export-ydpi="96"
   xmlns:inkscape="http://www.inkscape.org/namespaces/inkscape"
   xmlns:sodipodi="http://sodipodi.sourceforge.net/DTD/sodipodi-0.dtd"
   xmlns="http://www.w3.org/2000/svg"
   xmlns:svg="http://www.w3.org/2000/svg">
  <sodipodi:namedview
     id="namedview1"
     pagecolor="#ffffff"
     bordercolor="#000000"
     borderopacity="0.25"
     inkscape:showpageshadow="2"
     inkscape:pageopacity="0.0"
     inkscape:pagecheckerboard="0"
     inkscape:deskcolor="#d1d1d1"
     inkscape:document-units="mm"
     inkscape:zoom="0.43740881"
     inkscape:cx="395.51101"
     inkscape:cy="561.25984"
     inkscape:window-width="1366"
     inkscape:window-height="699"
     inkscape:window-x="0"
     inkscape:window-y="0"
     inkscape:window-maximized="1"
     inkscape:current-layer="layer1" />
  <defs
     id="defs1" />
  <g
     inkscape:label="Camada 1"
     inkscape:groupmode="layer"
     id="layer1">
    <g
       id="g1"
       transform="matrix(0.99905102,0,0,0.99905102,-2.5738485,-50.694716)">
      <path
         style="fill:#d7a437;stroke-width:0.801615"
         d="m 66.940106,240.595 c -0.904439,-0.20911 -1.502877,-0.82463 -1.331163,-1.36913 0.08008,-0.25388 0.196772,-2.10612 0.259363,-4.11608 0.06886,-2.21116 0.207987,-3.77465 0.352294,-3.95874 0.131176,-0.16734 1.336092,-0.74664 2.677588,-1.28734 1.341495,-0.5407 3.3923,-1.5141 4.557352,-2.16312 2.571366,-1.43243 7.247333,-4.47154 8.698529,-5.65355 2.163665,-1.76231 7.620085,-7.31751 9.203732,-9.37035 7.889539,-10.22697 12.687129,-22.31138 13.909069,-35.03485 0.93252,-9.70993 -0.21085,-20.6948 -3.08938,-29.68097 -1.902,-5.93766 -5.996441,-14.16096 -9.068384,-18.21296 -2.246399,-2.96309 -5.598089,-6.89064 -7.058881,-8.27167 -5.032454,-4.75769 -11.845463,-9.17835 -17.172575,-11.14251 -0.922747,-0.34023 -1.963709,-0.76649 -2.313254,-0.94724 l -0.635528,-0.32865 -0.0092,-2.06247 c -0.0048,-1.13436 -0.08961,-3.0319 -0.187834,-4.21676 -0.151538,-1.82796 -0.295051,-2.39643 -0.947398,-3.75271 -1.48472,-3.086869 -4.65979,-5.55788 -7.795197,-6.06665 -0.740789,-0.120202 -4.176088,-0.219274 -7.634,-0.220155 -5.57962,-0.0016 -6.301828,-0.04 -6.417974,-0.342651 -0.191233,-0.498332 -0.974981,-8.971672 -0.974981,-10.540746 0,-2.244179 0.906475,-2.06925 -10.392615,-2.005522 l -9.862371,0.05563 -0.06629,1.37861 c -0.08791,1.829118 0.527615,10.766609 0.934852,13.574019 0.697918,4.81132 2.131896,10.866685 3.48128,14.700675 0.484945,1.3779 0.833608,2.63065 0.774801,2.78391 -0.05884,0.15325 -1.233109,0.9326 -2.609547,1.7319 -2.19217,1.27297 -3.446345,2.1456 -6.593102,4.58732 -0.410748,0.31872 -0.841063,0.52125 -0.956248,0.45006 -0.663994,-0.41037 -3.228369,-8.41521 -4.576382,-14.28544 -1.95857,-8.528905 -3.003179,-18.550774 -2.9083078,-27.901762 0.032145,-3.169379 0.1090517,-4.026258 0.4462914,-4.973535 0.5422524,-1.523166 2.2733574,-3.397319 3.7080884,-4.014522 1.067479,-0.459222 1.210464,-0.464192 14.512903,-0.504289 7.389147,-0.02228 13.488687,-0.09433 13.554532,-0.160138 0.06589,-0.06581 0.128891,-2.317046 0.14009,-5.002746 0.01122,-2.685708 0.100346,-5.528068 0.198111,-6.316361 0.241126,-1.944326 1.004368,-3.149331 2.729429,-4.309236 l 1.340605,-0.901401 h 61.978446 61.97844 l 0.90946,0.439406 c 1.45303,0.702023 2.70401,1.995261 3.19217,3.299986 0.35801,0.956856 0.43202,1.656298 0.43202,4.082515 0,1.610301 0.0624,4.228057 0.13858,5.817235 l 0.13857,2.889407 13.48847,0.06044 13.48847,0.06044 1.06048,0.487679 c 2.09031,0.961273 3.43649,2.782271 3.93682,5.325388 0.29547,1.501858 0.16035,11.38754 -0.2206,16.138675 -1.46914,18.323129 -6.66343,33.336719 -15.55631,44.963949 -3.4383,4.4955 -6.54059,7.77689 -9.2375,9.77081 -0.41492,0.30676 -0.67321,0.69231 -0.69192,1.03285 -0.0353,0.64184 -0.20122,-0.38592 -0.80268,-4.97108 -0.60214,-4.59038 -0.78642,-8.82394 -0.45699,-10.49842 0.14218,-0.72272 0.21874,-1.35382 0.17012,-1.40243 -0.0487,-0.0487 -0.36543,0.12021 -0.70404,0.37517 -0.52535,0.39559 -0.50249,0.3416 0.15592,-0.3682 2.34336,-2.52623 5.66918,-7.47446 7.5732,-11.26757 3.93051,-7.83016 6.49726,-18.204041 7.23115,-29.225789 0.38515,-5.78412 0.40516,-7.318981 0.0994,-7.624733 -0.22566,-0.225663 -2.18049,-0.269111 -10.05588,-0.223507 -5.37667,0.0311 -9.81974,0.100587 -9.87349,0.154335 -0.0537,0.05371 -0.23923,1.997746 -0.41218,4.320002 -0.52619,7.065158 -1.78011,16.958222 -2.63905,20.821332 -0.22661,1.01923 -0.56471,2.59396 -0.75133,3.49939 -1.00173,4.86026 -4.27569,15.32582 -6.23313,19.92485 -1.71471,4.02871 -5.55437,11.5855 -7.43497,14.63269 -1.05808,1.71442 -1.92377,3.22375 -1.92377,3.35406 0,0.13944 0.28261,0.20952 0.68687,0.17033 l 0.68686,-0.0666 0.25253,1.5907 c 0.21978,1.3845 1.1384,7.72655 1.45124,10.01929 0.0802,0.58774 0.008,0.89307 -0.27738,1.17881 -0.52454,0.52453 -4.3725,2.00488 -11.42692,4.39606 -3.24591,1.10023 -6.40114,2.26497 -7.01162,2.58829 -1.71008,0.90571 -12.23278,10.90603 -14.00682,13.31148 -2.58577,3.50609 -4.43947,7.73461 -4.91221,11.20535 -1.13847,8.35835 1.54417,17.67347 6.92859,24.05868 1.3583,1.61076 2.4005,2.13174 5.85583,2.92723 3.11672,0.71754 5.34721,1.44066 5.82528,1.88854 0.15259,0.14296 0.69104,1.27478 1.19654,2.51516 0.99123,2.43222 1.62781,3.64581 3.46873,6.61291 1.79058,2.88594 2.87691,4.21894 5.60794,6.88133 1.37122,1.33676 2.49313,2.58335 2.49313,2.7702 0,0.50607 -1.30241,1.67285 -2.1333,1.91114 -0.80472,0.2308 -81.545563,0.25465 -82.541474,0.0244 z m 107.702264,-0.0495 c -4.65868,-0.49092 -11.25443,-2.95331 -15.59221,-5.82104 -3.52146,-2.32805 -7.7312,-6.84961 -10.00999,-10.75143 -0.92236,-1.57931 -2.93651,-6.31131 -3.47543,-8.16512 -1.04071,-3.57994 -1.28335,-10.14717 -0.53635,-14.51667 1.50459,-8.80092 7.00819,-17.30102 14.31644,-22.11122 4.22615,-2.7816 9.16131,-4.66806 14.22179,-5.43628 2.21196,-0.3358 7.74974,-0.34991 10.2122,-0.026 2.18224,0.28702 5.30713,1.14551 7.76722,2.13386 8.1974,3.29334 13.80697,8.47532 17.80213,16.44516 2.49209,4.9714 3.43079,9.04255 3.42759,14.86545 -0.002,3.71148 -0.24671,5.73669 -1.06129,8.78453 -2.228,8.33631 -8.40422,16.28862 -15.75232,20.28216 -6.68652,3.634 -13.91292,5.09712 -21.31978,4.31661 z m 17.41221,-15.64792 c -0.0653,-0.42233 -0.55488,-3.01076 -1.08794,-5.75207 -0.53306,-2.74132 -1.02585,-5.70003 -1.09509,-6.57492 l -0.12591,-1.5907 4.84987,-4.79453 c 5.8645,-5.79758 5.51647,-5.40237 5.00058,-5.67847 -0.42606,-0.22802 -5.72458,-1.03251 -10.83495,-1.64509 -2.0235,-0.24256 -3.17584,-0.47694 -3.43378,-0.69841 -0.21352,-0.18334 -1.69214,-3.05344 -3.28582,-6.37802 -1.59368,-3.32457 -2.996,-6.16516 -3.11625,-6.31241 -0.3367,-0.41228 -0.71913,0.0218 -1.52664,1.73284 -2.84221,6.02236 -5.26584,10.87321 -5.53187,11.07194 -0.17346,0.12958 -0.76866,0.29192 -1.32266,0.36077 -8.15303,1.01323 -12.83562,1.64089 -13.00009,1.74253 -0.11144,0.0689 -0.20261,0.22264 -0.20261,0.34171 0,0.11906 2.24763,2.41918 4.99475,5.11136 2.7471,2.69219 5.08322,5.06021 5.19135,5.26225 0.21728,0.406 -0.2085,3.30318 -1.26086,8.57938 -0.349,1.74978 -0.70116,3.83967 -0.78258,4.64419 l -0.14804,1.46278 0.52741,-0.13237 c 0.29007,-0.0728 3.18133,-1.51845 6.42501,-3.21255 3.24368,-1.6941 6.09089,-3.08019 6.32712,-3.08019 0.37053,0 4.13697,1.87718 11.2426,5.60329 1.02805,0.53909 1.96952,0.91815 2.09216,0.84235 0.12757,-0.0788 0.17217,-0.46638 0.10424,-0.90566 z m -144.11244,14.875 c 1.247538,-0.0374 3.347274,-0.0376 4.666067,-2.9e-4 1.318802,0.0373 0.298089,0.0679 -2.268251,0.0681 -2.566339,1.6e-4 -3.645354,-0.0303 -2.397816,-0.0677 z m -5.888186,-8.11352 c 0,-2.85797 0.03006,-4.02714 0.06669,-2.59816 0.03671,1.42899 0.03671,3.76733 0,5.19632 -0.03671,1.42898 -0.06669,0.25981 -0.06669,-2.59816 z m 16.319736,-2.75722 c 0,-1.3415 0.03447,-1.89029 0.07655,-1.21955 0.04209,0.67075 0.04209,1.76834 0,2.43909 -0.04208,0.67075 -0.07655,0.12195 -0.07655,-1.21954 z m -16.961838,-3.65863 -0.404038,-0.47721 0.47721,0.40404 c 0.448463,0.37969 0.573772,0.55039 0.404038,0.55039 -0.04024,0 -0.254994,-0.21475 -0.47721,-0.47722 z m -17.292569,-8.37772 c -0.263819,-0.33639 -0.256316,-0.34389 0.08008,-0.0801 0.204139,0.1601 0.371164,0.32713 0.371164,0.37117 0,0.17456 -0.174167,0.0622 -0.451238,-0.29109 z m -1.060473,-0.84837 c -0.263819,-0.33639 -0.256316,-0.34389 0.08008,-0.0801 0.204139,0.16009 0.371164,0.32711 0.371164,0.37116 0,0.17456 -0.174175,0.0622 -0.451246,-0.29109 z m -1.159617,-0.95442 -0.404038,-0.47722 0.477218,0.40404 c 0.448456,0.3797 0.573764,0.55039 0.404038,0.55039 -0.04024,0 -0.254994,-0.21474 -0.477218,-0.47721 z m 57.073465,-0.37117 c 0.211137,-0.2333 0.431606,-0.42418 0.489931,-0.42418 0.05836,0 -0.06669,0.19088 -0.27784,0.42418 -0.211137,0.23331 -0.431605,0.42419 -0.489931,0.42419 -0.05836,0 0.06669,-0.19088 0.27784,-0.42419 z m -59.068204,-1.37861 c -0.515183,-0.52493 -0.888976,-0.95442 -0.83065,-0.95442 0.05836,0 0.527559,0.42949 1.042741,0.95442 0.515182,0.52494 0.888975,0.95443 0.83065,0.95443 -0.05836,0 -0.527559,-0.42949 -1.042741,-0.95443 z m 61.083096,-0.3845 c 0,-0.0365 0.310186,-0.34669 0.689302,-0.68931 l 0.689309,-0.62294 -0.622944,0.6893 c -0.580666,0.64254 -0.755667,0.7868 -0.755667,0.62295 z m -63.107969,-1.68341 -0.838402,-0.9014 0.901401,0.83839 c 0.838297,0.7797 0.998869,0.9644 0.838401,0.9644 -0.03463,0 -0.440279,-0.40562 -0.9014,-0.90139 z m 65.547053,-1.00746 c 0.211137,-0.2333 0.431606,-0.42418 0.489931,-0.42418 0.05836,0 -0.06669,0.19088 -0.27784,0.42418 -0.211137,0.23331 -0.431606,0.42419 -0.489931,0.42419 -0.05836,0 0.06669,-0.19088 0.27784,-0.42419 z m -67.366929,-1.00744 c -0.263819,-0.33639 -0.256316,-0.3439 0.08008,-0.0801 0.353288,0.27707 0.465642,0.45123 0.291082,0.45123 -0.04401,0 -0.211065,-0.16702 -0.371164,-0.37116 z m 32.106286,-0.21114 c 1.137356,-0.0382 2.998483,-0.0382 4.135831,0 1.137356,0.0382 0.206793,0.0693 -2.067911,0.0693 -2.274712,0 -3.205276,-0.0312 -2.06792,-0.0693 z m 36.533207,-0.26607 c 0.211138,-0.2333 0.431606,-0.42419 0.489932,-0.42419 0.05836,0 -0.0667,0.19089 -0.27784,0.42419 -0.211138,0.2333 -0.431606,0.42419 -0.489932,0.42419 -0.05836,0 0.06669,-0.19089 0.27784,-0.42419 z m -30.011312,0.13202 c 0,-0.044 0.167017,-0.21107 0.371164,-0.37117 0.33639,-0.26382 0.343893,-0.25631 0.08008,0.0801 -0.277071,0.3533 -0.451238,0.46565 -0.451238,0.29109 z m -39.476554,-0.71528 c -0.26382,-0.3364 -0.256317,-0.3439 0.08008,-0.0801 0.20414,0.1601 0.371164,0.32712 0.371164,0.37117 0,0.17455 -0.174167,0.0622 -0.451237,-0.29109 z m 40.129574,-0.38884 c 0.01018,-0.24708 0.06044,-0.29733 0.128147,-0.12814 0.06124,0.15311 0.05371,0.33603 -0.01675,0.40651 -0.07046,0.0705 -0.120603,-0.0548 -0.111401,-0.27837 z m -10.713855,-6.81322 c -0.115103,-0.30227 -0.09074,-0.32663 0.118728,-0.11872 0.144948,0.14387 0.210119,0.31501 0.144812,0.38031 -0.06533,0.0653 -0.183891,-0.0524 -0.26354,-0.26159 z m 11.064747,-0.0885 c 0.143865,-0.14495 0.31501,-0.21012 0.38031,-0.14482 0.06533,0.0653 -0.05243,0.1839 -0.261583,0.26355 -0.302273,0.1151 -0.326642,0.0907 -0.118727,-0.11873 z m 10.343115,-4.21557 c 0.211138,-0.2333 0.431606,-0.42419 0.489932,-0.42419 0.05836,0 -0.06669,0.19089 -0.277832,0.42419 -0.211138,0.23331 -0.431606,0.4242 -0.489932,0.4242 -0.05836,0 0.06669,-0.19089 0.277832,-0.4242 z M 34.2998,195.86822 c -0.26382,-0.33639 -0.256317,-0.34389 0.08008,-0.0801 0.204139,0.1601 0.371164,0.32712 0.371164,0.37116 0,0.17456 -0.174167,0.0622 -0.451237,-0.29109 z m 33.750014,-1.00745 c 0.633613,-0.64158 1.199746,-1.16651 1.258071,-1.16651 0.05836,0 -0.412367,0.52493 -1.04598,1.16651 -0.633613,0.64159 -1.199745,1.16652 -1.258079,1.16652 -0.05836,0 0.412367,-0.52493 1.045988,-1.16652 z m -35.545914,-0.58325 -0.404038,-0.47721 0.47721,0.40403 c 0.448464,0.3797 0.573772,0.55039 0.404038,0.55039 -0.04024,0 -0.254994,-0.21475 -0.47721,-0.47721 z m 15.980228,-3.90514 c 0.145814,-0.0588 0.384423,-0.0588 0.530237,0 0.145814,0.0588 0.02653,0.10698 -0.265118,0.10698 -0.291628,0 -0.410932,-0.0482 -0.265119,-0.10698 z m 4.679326,-0.005 c 0.153109,-0.0612 0.336038,-0.0537 0.406516,0.0168 0.07046,0.0705 -0.05475,0.12061 -0.278369,0.1114 -0.247082,-0.0102 -0.297336,-0.0604 -0.128147,-0.12815 z m -9.31942,-1.92302 c -0.26382,-0.3364 -0.256317,-0.3439 0.08008,-0.0801 0.204139,0.16009 0.371164,0.32712 0.371164,0.37116 0,0.17456 -0.174167,0.0622 -0.451237,-0.29108 z m -1.696756,-1.69676 c -0.263819,-0.33639 -0.256316,-0.34389 0.08008,-0.0801 0.204139,0.1601 0.371164,0.32712 0.371164,0.37116 0,0.17456 -0.174175,0.0622 -0.451246,-0.29109 z m 30.373249,-1.44931 c 0.01018,-0.24707 0.06044,-0.29733 0.128147,-0.12814 0.06124,0.15311 0.05371,0.33604 -0.01675,0.40652 -0.07046,0.0705 -0.120611,-0.0548 -0.111401,-0.27838 z m -12.481088,-1.99722 c 0,-0.40828 0.04369,-0.5753 0.097,-0.37116 0.05339,0.20414 0.05339,0.53819 0,0.74233 -0.05331,0.20414 -0.097,0.0371 -0.097,-0.37117 z m 12.739994,-0.63628 c 0,-0.64158 0.03976,-0.90405 0.08836,-0.58325 0.04858,0.32079 0.04858,0.84572 0,1.16651 -0.04858,0.32079 -0.08836,0.0584 -0.08836,-0.58326 z m -68.9773815,0.51256 c 0.01018,-0.24707 0.060442,-0.29733 0.1281382,-0.12814 0.061243,0.1531 0.053708,0.33604 -0.016754,0.40652 -0.070462,0.0705 -0.1206031,-0.0548 -0.1113925,-0.27838 z M 28.984728,182.5201 c 0.153109,-0.0613 0.336038,-0.0537 0.406516,0.0167 0.07046,0.0705 -0.05483,0.1206 -0.278369,0.11139 -0.247082,-0.0102 -0.297336,-0.0604 -0.128147,-0.12814 z m 2.637925,-0.21342 c 0.204139,-0.0534 0.538188,-0.0534 0.742328,0 0.204139,0.0534 0.03711,0.097 -0.371164,0.097 -0.408279,0 -0.575304,-0.0436 -0.371164,-0.097 z m 3.817693,-0.21209 c 0.20414,-0.0533 0.538189,-0.0533 0.742328,0 0.204139,0.0534 0.03712,0.097 -0.371164,0.097 -0.408279,0 -0.575303,-0.0437 -0.371164,-0.097 z m 61.471007,-0.6138 c 0.01018,-0.24708 0.06044,-0.29733 0.128138,-0.12814 0.06124,0.15311 0.05371,0.33603 -0.01675,0.40651 -0.07046,0.0705 -0.120603,-0.0548 -0.111392,-0.27837 z M 3.3778607,180.8445 c 0.010181,-0.24707 0.060442,-0.29732 0.1281382,-0.12813 0.061243,0.1531 0.053708,0.33603 -0.016754,0.40651 -0.070462,0.0705 -0.120603,-0.0548 -0.1113925,-0.27838 z m 69.1594123,-0.72465 c 0,-0.29163 0.04818,-0.41093 0.106976,-0.26512 0.05884,0.14582 0.05884,0.38443 0,0.53024 -0.05884,0.14581 -0.106976,0.0265 -0.106976,-0.26512 z m 24.586171,-0.12372 c 0.01018,-0.24707 0.06044,-0.29734 0.128138,-0.12814 0.06124,0.1531 0.05371,0.33604 -0.01675,0.40652 -0.07046,0.0705 -0.120604,-0.0548 -0.111393,-0.27838 z M 3.1657693,179.57194 c 0.010181,-0.24707 0.060442,-0.29733 0.1281382,-0.12814 0.061243,0.15311 0.053708,0.33604 -0.016754,0.40652 -0.070462,0.0705 -0.120603,-0.0548 -0.1113925,-0.27838 z m 55.2204177,-0.35349 -0.622943,-0.6893 0.689309,0.62294 c 0.642527,0.58066 0.786794,0.75567 0.622935,0.75567 -0.03647,0 -0.346682,-0.31019 -0.689301,-0.68931 z m 13.922249,-0.28279 c 0.01018,-0.24708 0.06044,-0.29733 0.128138,-0.12814 0.06124,0.15311 0.05371,0.33604 -0.01675,0.40651 -0.07046,0.0705 -0.120603,-0.0548 -0.111392,-0.27837 z m 25.027099,-0.42419 c 0.01018,-0.24708 0.06044,-0.29733 0.128139,-0.12813 0.06124,0.1531 0.05371,0.33603 -0.01675,0.4065 -0.07046,0.0705 -0.120611,-0.0548 -0.111401,-0.27837 z m -94.3818652,-0.2121 c 0.01018,-0.24707 0.060442,-0.29732 0.1281382,-0.12813 0.061243,0.15311 0.053708,0.33603 -0.016754,0.40651 -0.070462,0.0705 -0.1206111,-0.0548 -0.1114005,-0.27838 z M 97.572236,176.6203 c 0.004,-0.34996 0.05186,-0.46744 0.105629,-0.26108 0.05379,0.20636 0.05026,0.49269 -0.008,0.63628 -0.05812,0.14359 -0.102094,-0.0252 -0.09777,-0.3752 z M 2.7583242,176.51425 c 0,-0.29163 0.048097,-0.41093 0.1069755,-0.26511 0.058839,0.14581 0.058839,0.38441 0,0.53023 -0.058838,0.14582 -0.1069755,0.0265 -0.1069755,-0.26512 z M 2.580622,173.54494 c 0,-0.75824 0.038478,-1.06843 0.085548,-0.68931 0.047055,0.37912 0.047055,0.99949 0,1.37861 -0.047055,0.37912 -0.085548,0.0689 -0.085548,-0.6893 z m 95.203706,0.74233 c 0.004,-0.34996 0.05186,-0.46744 0.105629,-0.26108 0.05379,0.20636 0.05026,0.49268 -0.008,0.63628 -0.05812,0.14359 -0.102094,-0.0252 -0.09777,-0.3752 z m -29.734514,-3.39351 c -0.51519,-0.52494 -0.888976,-0.95442 -0.83065,-0.95442 0.05836,0 0.527559,0.42948 1.042741,0.95442 0.515182,0.52493 0.888976,0.95442 0.83065,0.95442 -0.05836,0 -0.527559,-0.42949 -1.042741,-0.95442 z m 96.856296,-0.45954 c -0.0778,-0.0778 -0.13993,-0.24479 -0.13815,-0.37116 0.002,-0.1555 0.0536,-0.152 0.15907,0.0108 0.0857,0.13232 0.3467,0.28828 0.58001,0.34656 0.4103,0.10251 0.40972,0.10678 -0.0177,0.13058 -0.24302,0.0136 -0.50549,-0.039 -0.58325,-0.11679 z m -98.580106,-1.07814 c -0.26382,-0.3364 -0.256317,-0.34389 0.08008,-0.0801 0.204148,0.1601 0.371172,0.32712 0.371172,0.37116 0,0.17456 -0.174175,0.0622 -0.451245,-0.29108 z m -31.701165,-0.53024 -0.404039,-0.47721 0.477218,0.40403 c 0.448456,0.37971 0.573764,0.55039 0.40403,0.55039 -0.04024,0 -0.254985,-0.21474 -0.477209,-0.47721 z m 129.944521,-0.0707 c 0.0102,-0.24707 0.0605,-0.29733 0.12814,-0.12814 0.0613,0.15311 0.0537,0.33604 -0.0168,0.40652 -0.0705,0.0705 -0.12061,-0.0548 -0.11139,-0.27838 z m 7.56562,-0.0168 c 0.14581,-0.0588 0.38442,-0.0588 0.53023,0 0.14582,0.0588 0.0265,0.10697 -0.26511,0.10697 -0.29163,0 -0.41094,-0.0482 -0.26512,-0.10697 z m 1.69675,-0.2121 c 0.14582,-0.0588 0.38443,-0.0588 0.53024,0 0.14581,0.0588 0.0265,0.10698 -0.26512,0.10698 -0.29163,0 -0.41093,-0.0482 -0.26512,-0.10698 z m 9.33215,0 c 0.14581,-0.0588 0.38441,-0.0588 0.53023,0 0.14582,0.0588 0.0265,0.10698 -0.26512,0.10698 -0.29163,0 -0.41094,-0.0482 -0.26511,-0.10698 z m -6.99911,-0.22131 c 0.26247,-0.0506 0.69196,-0.0506 0.95442,0 0.26247,0.0506 0.0477,0.0919 -0.47721,0.0919 -0.52494,0 -0.73967,-0.0414 -0.47721,-0.0919 z m 4.34793,0.003 c 0.20414,-0.0534 0.53819,-0.0534 0.74233,0 0.20414,0.0533 0.0371,0.097 -0.37117,0.097 -0.40828,0 -0.57531,-0.0437 -0.37116,-0.097 z M 2.5762933,167.18183 c 0,-0.64159 0.03976,-0.90406 0.088362,-0.58327 0.048578,0.3208 0.048578,0.84573 0,1.16652 -0.048578,0.32079 -0.088362,0.0584 -0.088362,-0.58325 z m 161.7809667,0.30046 c 0.0102,-0.24708 0.0605,-0.29733 0.12815,-0.12814 0.0612,0.15311 0.0537,0.33604 -0.0168,0.40651 -0.0705,0.0705 -0.12061,-0.0548 -0.1114,-0.27837 z M 32.603044,166.81066 c -0.263819,-0.3364 -0.256316,-0.34389 0.08008,-0.0801 0.204139,0.1601 0.371164,0.32712 0.371164,0.37116 0,0.17456 -0.174175,0.0622 -0.451246,-0.29108 z m 65.197701,-0.9014 c 0,-0.52494 0.04136,-0.73968 0.09192,-0.47721 0.05058,0.26247 0.05058,0.69196 0,0.95442 -0.05058,0.26247 -0.09192,0.0477 -0.09192,-0.47721 z m 95.401325,0.51256 c 0.0102,-0.24708 0.0604,-0.29733 0.12813,-0.12814 0.0613,0.1531 0.0537,0.33603 -0.0168,0.40651 -0.0705,0.0705 -0.1206,-0.0548 -0.1114,-0.27837 z m -29.0569,-0.2121 c 0.0102,-0.24707 0.0604,-0.29732 0.12814,-0.12814 0.0612,0.15311 0.0537,0.33604 -0.0168,0.40652 -0.0705,0.0705 -0.12061,-0.0548 -0.1114,-0.27838 z m 29.26899,-1.27256 c 0.0102,-0.24708 0.0604,-0.29733 0.12813,-0.12814 0.0613,0.15311 0.0537,0.33604 -0.0168,0.40652 -0.0705,0.0705 -0.1206,-0.0548 -0.11139,-0.27838 z M 2.7583242,164.21324 c 0,-0.29162 0.048097,-0.41093 0.1069755,-0.26511 0.058839,0.14581 0.058839,0.38442 0,0.53023 -0.058838,0.14582 -0.1069755,0.0265 -0.1069755,-0.26512 z m 94.8139118,-0.74232 c 0.004,-0.34996 0.05186,-0.46744 0.105629,-0.26108 0.05379,0.20636 0.05026,0.49269 -0.008,0.63628 -0.05812,0.14359 -0.102094,-0.0252 -0.09777,-0.3752 z m 66.165494,0.10604 c 0,-0.29163 0.0482,-0.41093 0.10697,-0.26512 0.0588,0.14582 0.0588,0.38443 0,0.53024 -0.0588,0.14581 -0.10697,0.0265 -0.10697,-0.26512 z m 29.88852,-0.12372 c 0.0102,-0.24707 0.0604,-0.29733 0.12814,-0.12814 0.0613,0.15311 0.0537,0.33604 -0.0168,0.40652 -0.0705,0.0705 -0.12061,-0.0548 -0.1114,-0.27838 z M 2.9704156,162.3044 c 0,-0.29163 0.048177,-0.41094 0.1069755,-0.26512 0.058839,0.14581 0.058839,0.38442 0,0.53024 -0.058838,0.14581 -0.1069755,0.0265 -0.1069755,-0.26512 z M 163.50889,162.18068 c 0.0102,-0.24708 0.0604,-0.29734 0.12814,-0.12814 0.0612,0.15311 0.0537,0.33603 -0.0168,0.40651 -0.0705,0.0705 -0.12061,-0.0547 -0.1114,-0.27837 z m 30.32946,-0.2121 c 0.0102,-0.24708 0.0604,-0.29733 0.12814,-0.12813 0.0612,0.1531 0.0537,0.33603 -0.0168,0.4065 -0.0705,0.0705 -0.1206,-0.0547 -0.1114,-0.27837 z m -96.486069,-0.30047 c 0,-0.29162 0.0481,-0.41093 0.106976,-0.26511 0.05884,0.14581 0.05884,0.38442 0,0.53023 -0.05884,0.14582 -0.106976,0.0265 -0.106976,-0.26512 z m 65.944519,-0.76 c 0.0102,-0.24707 0.0604,-0.29733 0.12814,-0.12814 0.0612,0.15311 0.0537,0.33604 -0.0168,0.40652 -0.0705,0.0705 -0.1206,-0.0548 -0.11139,-0.27838 z M 3.1657693,160.69602 c 0.010181,-0.24708 0.060442,-0.29734 0.1281382,-0.12814 0.061243,0.1531 0.053708,0.33604 -0.016754,0.40651 -0.070462,0.0705 -0.120603,-0.0548 -0.1113925,-0.27837 z m 190.8846707,-0.2121 c 0.0102,-0.24707 0.0604,-0.29733 0.12814,-0.12814 0.0612,0.15311 0.0537,0.33604 -0.0168,0.40652 -0.0705,0.0705 -0.1206,-0.0548 -0.11139,-0.27838 z m -96.926996,-0.21209 c 0.01018,-0.24707 0.06044,-0.29734 0.128138,-0.12814 0.06124,0.15311 0.05371,0.33604 -0.01675,0.40652 -0.07046,0.0705 -0.120604,-0.0548 -0.111393,-0.27838 z M 3.3778607,159.42346 c 0.010181,-0.24709 0.060442,-0.29734 0.1281382,-0.12814 0.061243,0.1531 0.053708,0.33603 -0.016754,0.4065 -0.070462,0.0705 -0.120603,-0.0548 -0.1113925,-0.27836 z m 159.7068393,0 c 0.0102,-0.24709 0.0604,-0.29734 0.12815,-0.12814 0.0612,0.1531 0.0537,0.33603 -0.0168,0.4065 -0.0705,0.0705 -0.1206,-0.0548 -0.1114,-0.27836 z m -66.173347,-0.4242 c 0.01018,-0.24707 0.06044,-0.29733 0.128138,-0.12813 0.06124,0.1531 0.05371,0.33603 -0.01675,0.40651 -0.07046,0.0705 -0.120603,-0.0547 -0.111392,-0.27838 z M 29.29436,157.63833 c 0,-0.52494 0.04136,-0.73968 0.09191,-0.47721 0.05058,0.26247 0.05058,0.69195 0,0.95442 -0.05058,0.26246 -0.09191,0.0477 -0.09191,-0.47721 z m 133.57825,0.30047 c 0.0102,-0.24708 0.0604,-0.29734 0.12814,-0.12815 0.0612,0.15311 0.0537,0.33604 -0.0168,0.40652 -0.0705,0.0705 -0.12061,-0.0548 -0.1114,-0.27837 z m 31.60202,-0.2121 c 0.0102,-0.24707 0.0604,-0.29734 0.12814,-0.12814 0.0612,0.15311 0.0537,0.33604 -0.0168,0.40652 -0.0705,0.0705 -0.1206,-0.0548 -0.11139,-0.27838 z M 42.207824,157.00205 c 0,-0.29163 0.04818,-0.41093 0.106976,-0.26512 0.05884,0.14581 0.05884,0.38442 0,0.53024 -0.05884,0.14581 -0.106976,0.0265 -0.106976,-0.26512 z m 20.499864,-0.14489 c 0.153109,-0.0612 0.336037,-0.0537 0.406515,0.0168 0.07046,0.0705 -0.05475,0.1206 -0.278369,0.11139 -0.247081,-0.0102 -0.297335,-0.0604 -0.128146,-0.12814 z m 99.952832,-0.19093 c 0.0102,-0.24708 0.0604,-0.29733 0.12813,-0.12814 0.0613,0.15311 0.0537,0.33604 -0.0168,0.40651 -0.0705,0.0705 -0.1206,-0.0548 -0.11139,-0.27837 z m -98.043985,-0.0212 c 0.153109,-0.0612 0.336037,-0.0537 0.406515,0.0168 0.07046,0.0705 -0.05483,0.12061 -0.278369,0.1114 -0.247082,-0.0102 -0.297335,-0.0605 -0.128146,-0.12815 z m 2.005674,-0.21418 c 0.20636,-0.0538 0.492689,-0.0503 0.636282,0.008 0.143594,0.0581 -0.02525,0.1021 -0.375196,0.0978 -0.349961,-0.004 -0.467446,-0.0519 -0.261086,-0.10563 z m 128.064511,-0.18884 c 0.0102,-0.24708 0.0604,-0.29733 0.12814,-0.12814 0.0612,0.1531 0.0537,0.33604 -0.0168,0.40651 -0.0705,0.0705 -0.12061,-0.0548 -0.1114,-0.27837 z m -165.39664,-0.6186 c 0.0024,-0.46662 0.04577,-0.63253 0.09652,-0.3687 0.05074,0.26383 0.04882,0.6456 -0.004,0.84837 -0.05307,0.20279 -0.0946,-0.0131 -0.09224,-0.47967 z m 40.416713,0.59744 c 0.153109,-0.0612 0.336037,-0.0537 0.406515,0.0168 0.07046,0.0705 -0.05483,0.12061 -0.278377,0.1114 -0.247074,-0.0102 -0.297327,-0.0605 -0.128138,-0.12814 z m 26.568277,-0.61512 c 0.01018,-0.24708 0.06044,-0.29734 0.128139,-0.12814 0.06124,0.1531 0.05371,0.33604 -0.01675,0.40651 -0.07046,0.0705 -0.120603,-0.0548 -0.111393,-0.27837 z m -54.083992,-0.42419 c 0.01018,-0.24707 0.06044,-0.29734 0.128139,-0.12814 0.06124,0.15311 0.05371,0.33604 -0.01675,0.40652 -0.07046,0.0705 -0.120603,-0.0548 -0.111393,-0.27838 z m 120.257342,0 c 0.0102,-0.24707 0.0604,-0.29734 0.12814,-0.12814 0.0613,0.15311 0.0537,0.33604 -0.0168,0.40652 -0.0705,0.0705 -0.1206,-0.0548 -0.1114,-0.27838 z m 32.45039,-0.63628 c 0.0102,-0.24708 0.0604,-0.29734 0.12815,-0.12814 0.0612,0.15311 0.0537,0.33604 -0.0168,0.40651 -0.0705,0.0705 -0.12061,-0.0548 -0.1114,-0.27837 z m -32.64574,-0.72466 c 0,-0.29162 0.0481,-0.41093 0.10698,-0.26511 0.0588,0.14581 0.0588,0.38442 0,0.53023 -0.0588,0.14582 -0.10698,0.0265 -0.10698,-0.26512 z m -91.217199,-0.12372 c 0.01018,-0.24708 0.06044,-0.29733 0.128139,-0.12814 0.06124,0.15311 0.05371,0.33604 -0.01675,0.40651 -0.07046,0.0705 -0.120603,-0.0548 -0.111393,-0.27837 z m -41.570438,-0.21209 c 0.01018,-0.24708 0.06044,-0.29733 0.128138,-0.12814 0.06124,0.1531 0.05371,0.33603 -0.01675,0.40651 -0.07046,0.0705 -0.120603,-0.0548 -0.111393,-0.27837 z m 165.645477,-0.2121 c 0.0102,-0.24707 0.0604,-0.29733 0.12814,-0.12814 0.0612,0.15311 0.0537,0.33604 -0.0168,0.40652 -0.0705,0.0705 -0.12061,-0.0548 -0.1114,-0.27838 z M 29.677525,152.42436 c 0.01018,-0.24708 0.06044,-0.29734 0.128138,-0.12814 0.06124,0.1531 0.05371,0.33604 -0.01675,0.40651 -0.07046,0.0705 -0.120611,-0.0548 -0.1114,-0.27837 z m 27.316337,-0.0353 c -0.263812,-0.33639 -0.256317,-0.3439 0.08008,-0.0801 0.353296,0.27707 0.46565,0.45123 0.291083,0.45123 -0.04401,0 -0.211066,-0.16702 -0.371164,-0.37116 z m 105.030368,-0.17674 c 0.0102,-0.24708 0.0605,-0.29734 0.12814,-0.12815 0.0613,0.15311 0.0537,0.33604 -0.0168,0.40652 -0.0705,0.0705 -0.1206,-0.0548 -0.11139,-0.27837 z m -118.789424,0.0436 c 0,-0.044 0.167024,-0.21106 0.371164,-0.37116 0.33639,-0.26382 0.343893,-0.25632 0.08008,0.0801 -0.27707,0.3533 -0.451237,0.46565 -0.451237,0.29109 z M 195.323,151.78804 c 0.0102,-0.24708 0.0605,-0.29733 0.12814,-0.12813 0.0612,0.1531 0.0537,0.33603 -0.0168,0.4065 -0.0705,0.0705 -0.12061,-0.0548 -0.11139,-0.27837 z m 0.21209,-1.48465 c 0.0102,-0.24708 0.0605,-0.29734 0.12815,-0.12815 0.0612,0.15311 0.0537,0.33604 -0.0168,0.40652 -0.0705,0.0705 -0.12061,-0.0548 -0.1114,-0.27837 z M 53.163454,149.85803 c 0.153109,-0.0612 0.336038,-0.0537 0.406516,0.0168 0.07046,0.0705 -0.05475,0.1206 -0.278369,0.11139 -0.247082,-0.0102 -0.297336,-0.0604 -0.128147,-0.12814 z m 128.241916,-0.0813 c -0.21761,-0.35212 -0.0223,-0.40094 0.28221,-0.0705 0.15041,0.16321 0.17991,0.29675 0.0655,0.29675 -0.11436,0 -0.27084,-0.1018 -0.34774,-0.22621 z M 47.861105,149.64594 c 0.153108,-0.0613 0.336037,-0.0537 0.406515,0.0168 0.07046,0.0705 -0.05483,0.12061 -0.278377,0.1114 -0.247074,-0.0102 -0.297335,-0.0604 -0.128138,-0.12815 z m 4.241884,0 c 0.153101,-0.0613 0.336037,-0.0537 0.406507,0.0168 0.07046,0.0705 -0.05483,0.12061 -0.278369,0.1114 -0.247081,-0.0102 -0.297335,-0.0604 -0.128138,-0.12815 z m 109.513801,-0.2793 c 0,-0.29163 0.0482,-0.41094 0.10697,-0.26512 0.0588,0.14581 0.0588,0.38442 0,0.53023 -0.0588,0.14582 -0.10697,0.0265 -0.10697,-0.26511 z m 34.1304,-0.33582 c 0.0102,-0.24708 0.0605,-0.29733 0.12814,-0.12814 0.0613,0.15311 0.0537,0.33603 -0.0168,0.40651 -0.0705,0.0705 -0.1206,-0.0548 -0.11139,-0.27837 z m -14.63449,-1.06047 c 0.0102,-0.24708 0.0604,-0.29733 0.12814,-0.12814 0.0612,0.1531 0.0537,0.33604 -0.0168,0.40651 -0.0705,0.0705 -0.12061,-0.0548 -0.1114,-0.27837 z m -113.189092,-1.20187 -0.404031,-0.47721 0.47721,0.40404 c 0.448464,0.37969 0.573764,0.55039 0.404038,0.55039 -0.04024,0 -0.254994,-0.21475 -0.477217,-0.47722 z m 117.838412,-0.053 c 0.27398,-0.29162 0.54586,-0.53023 0.60418,-0.53023 0.0584,0 -0.11811,0.23861 -0.39208,0.53023 -0.27397,0.29163 -0.54585,0.53024 -0.60417,0.53024 -0.0584,0 0.11811,-0.23861 0.39207,-0.53024 z m -4.86142,-0.0176 c 0.0102,-0.24708 0.0604,-0.29734 0.12815,-0.12814 0.0612,0.1531 0.0537,0.33604 -0.0168,0.40651 -0.0705,0.0705 -0.12062,-0.0548 -0.11141,-0.27837 z M 32.418007,146.52941 c 0,-0.044 0.167025,-0.21107 0.371164,-0.37117 0.33639,-0.26382 0.343893,-0.25631 0.08008,0.0801 -0.277071,0.3533 -0.451238,0.46565 -0.451238,0.29109 z m 33.72296,-1.72272 c -0.51519,-0.52494 -0.888975,-0.95443 -0.83065,-0.95443 0.05836,0 0.527559,0.42949 1.042742,0.95443 0.515182,0.52493 0.888975,0.95442 0.830649,0.95442 -0.05836,0 -0.527559,-0.42949 -1.042741,-0.95442 z m 130.242513,0.40651 c 0.0102,-0.24708 0.0604,-0.29733 0.12813,-0.12814 0.0613,0.1531 0.0537,0.33603 -0.0168,0.40651 -0.0705,0.0705 -0.1206,-0.0548 -0.1114,-0.27837 z m 0.21209,-1.48466 c 0.0102,-0.24708 0.0604,-0.29734 0.12814,-0.12814 0.0612,0.15311 0.0537,0.33604 -0.0168,0.40652 -0.0705,0.0705 -0.1206,-0.0548 -0.11139,-0.27838 z M 35.387319,143.56009 c 0,-0.044 0.167025,-0.21107 0.371164,-0.37117 0.336398,-0.26381 0.343901,-0.25631 0.08008,0.0801 -0.277079,0.3533 -0.451246,0.46565 -0.451246,0.29109 z M 64.417157,143.269 c -0.263819,-0.33639 -0.256316,-0.34389 0.08008,-0.0801 0.204147,0.1601 0.371172,0.32713 0.371172,0.37117 0,0.17456 -0.174175,0.0622 -0.451246,-0.29109 z m 125.577883,-0.74232 c 0.87892,-0.93644 1.06934,-1.10482 1.06934,-0.94557 0,0.0341 -0.45335,0.48739 -1.00745,1.00745 l -1.00745,0.94556 z m 6.81262,-0.2828 c 0.0102,-0.24708 0.0604,-0.29733 0.12815,-0.12814 0.0612,0.1531 0.0537,0.33604 -0.0168,0.40651 -0.0705,0.0705 -0.12061,-0.0548 -0.1114,-0.27837 z m 0.2121,-1.48465 c 0.0102,-0.24709 0.0604,-0.29734 0.12814,-0.12815 0.0612,0.15311 0.0537,0.33604 -0.0168,0.40652 -0.0705,0.0705 -0.1206,-0.0548 -0.1114,-0.27837 z m -33.31552,-0.16845 c 0,-0.044 0.16703,-0.21107 0.37117,-0.37117 0.33639,-0.26382 0.34389,-0.25632 0.0801,0.0801 -0.27707,0.3533 -0.45124,0.46565 -0.45124,0.29109 z m 28.31456,-0.34411 c 0.21114,-0.23331 0.43161,-0.4242 0.48993,-0.4242 0.0584,0 -0.0667,0.19089 -0.27784,0.4242 -0.21114,0.2333 -0.4316,0.42418 -0.48993,0.42418 -0.0584,0 0.0667,-0.19088 0.27784,-0.42418 z M 43.61922,139.67759 c 0.153109,-0.0612 0.336038,-0.0537 0.406516,0.0168 0.07046,0.0705 -0.05475,0.12061 -0.278369,0.1114 -0.247082,-0.0102 -0.297335,-0.0604 -0.128147,-0.12814 z m 153.61263,-0.61512 c 0.0102,-0.24708 0.0604,-0.29733 0.12814,-0.12814 0.0612,0.1531 0.0537,0.33604 -0.0168,0.40651 -0.0705,0.0705 -0.1206,-0.0548 -0.11139,-0.27837 z m -4.04653,-0.16845 c 0,-0.044 0.16702,-0.21107 0.37116,-0.37116 0.33639,-0.26382 0.3439,-0.25632 0.0801,0.0801 -0.27707,0.35329 -0.45124,0.46565 -0.45124,0.29109 z m 4.25862,-1.10411 c 0.0102,-0.24709 0.0604,-0.29734 0.12815,-0.12814 0.0612,0.1531 0.0537,0.33604 -0.0168,0.40651 -0.0705,0.0705 -0.12061,-0.0548 -0.1114,-0.27837 z m 0.2121,-1.48466 c 0.0102,-0.24708 0.0604,-0.29733 0.12814,-0.12815 0.0612,0.15311 0.0537,0.33604 -0.0168,0.40652 -0.0705,0.0705 -0.12061,-0.0548 -0.11141,-0.27837 z m -28.22526,-0.16845 c 0,-0.044 0.16703,-0.21107 0.37117,-0.37116 0.33639,-0.26382 0.34389,-0.25632 0.0801,0.0801 -0.27708,0.35329 -0.45125,0.46565 -0.45125,0.29109 z m 28.43735,-1.10411 c 0.0102,-0.24709 0.0604,-0.29734 0.12814,-0.12815 0.0612,0.15311 0.0537,0.33604 -0.0168,0.40652 -0.0705,0.0705 -0.12061,-0.0548 -0.1114,-0.27837 z m 0.231,-1.52002 c -0.0196,-0.37912 -0.15018,-0.6893 -0.29016,-0.6893 -0.19596,0 -0.19678,-0.0577 -0.003,-0.25098 0.37208,-0.37208 0.50864,-0.10382 0.41381,0.81296 -0.0788,0.7617 -0.0869,0.77026 -0.12012,0.12732 z M 44.948299,132.27546 c 0.01018,-0.24708 0.06044,-0.29734 0.128138,-0.12814 0.06124,0.15311 0.05371,0.33604 -0.01675,0.40651 -0.07046,0.0705 -0.120603,-0.0548 -0.111392,-0.27837 z m 129.148551,0.25574 c 0,-0.044 0.16703,-0.21107 0.37117,-0.37117 0.33639,-0.26382 0.34389,-0.25631 0.0801,0.0801 -0.27707,0.3533 -0.45125,0.46565 -0.45125,0.2911 z M 45.143653,131.68282 c 0,-0.044 0.167024,-0.21106 0.371164,-0.37116 0.336389,-0.26382 0.343893,-0.25632 0.08008,0.0801 -0.27707,0.3533 -0.451237,0.46565 -0.451237,0.29109 z m 9.72927,-0.29109 c -0.263819,-0.33639 -0.256316,-0.34389 0.08008,-0.0801 0.353296,0.27707 0.46565,0.45124 0.29109,0.45124 -0.04401,0 -0.211065,-0.16703 -0.371164,-0.37117 z M 16.08676,130.80848 c 0.273968,-0.29163 0.545852,-0.53024 0.604178,-0.53024 0.05836,0 -0.11811,0.23861 -0.392087,0.53024 -0.273968,0.29163 -0.545852,0.53023 -0.604177,0.53023 -0.05836,0 0.118118,-0.2386 0.392086,-0.53023 z m 32.079231,0.16002 c 1.137356,-0.0382 2.998483,-0.0382 4.135831,0 1.137356,0.0382 0.206793,0.0693 -2.067911,0.0693 -2.274712,0 -3.205276,-0.0312 -2.06792,-0.0693 z m 35.350632,-1.06142 -0.51418,-0.58327 0.583255,0.51419 c 0.545147,0.48058 0.680524,0.65233 0.514189,0.65233 -0.038,0 -0.300462,-0.26246 -0.583264,-0.58325 z m 93.761637,0.079 c 0,-0.044 0.16703,-0.21107 0.37117,-0.37117 0.33639,-0.26382 0.34389,-0.25631 0.0801,0.0801 -0.27707,0.35329 -0.45125,0.46565 -0.45125,0.29109 z M 17.571416,129.11169 c 0.273976,-0.29163 0.545852,-0.53024 0.604177,-0.53024 0.05836,0 -0.11811,0.23861 -0.392078,0.53024 -0.273976,0.29163 -0.545852,0.53024 -0.604177,0.53024 -0.05836,0 0.11811,-0.23861 0.392078,-0.53024 z m 63.628226,-1.69676 c -0.515182,-0.52493 -0.888976,-0.95441 -0.83065,-0.95441 0.05836,0 0.527559,0.42948 1.042741,0.95441 0.515191,0.52494 0.888976,0.95443 0.83065,0.95443 -0.05836,0 -0.527559,-0.42949 -1.042741,-0.95443 z m -60.977051,-0.95441 c 0.45563,-0.46661 0.876141,-0.84838 0.934467,-0.84838 0.05836,0 -0.266738,0.38177 -0.722368,0.84838 -0.45563,0.4666 -0.876142,0.84837 -0.934467,0.84837 -0.05836,0 0.266745,-0.38177 0.722368,-0.84837 z m 58.729914,-1.1135 -0.404038,-0.47721 0.47721,0.40403 c 0.448464,0.3797 0.573764,0.55039 0.404038,0.55039 -0.04024,0 -0.254994,-0.21474 -0.47721,-0.47721 z m -56.927113,-0.45124 c 0,-0.044 0.167024,-0.21107 0.371164,-0.37117 0.336398,-0.26382 0.343901,-0.25631 0.08008,0.0801 -0.27707,0.35328 -0.451245,0.46564 -0.451245,0.29108 z m 54.69322,-1.35156 c -0.263812,-0.3364 -0.256317,-0.34389 0.08008,-0.0801 0.353296,0.27708 0.465642,0.45125 0.291083,0.45125 -0.04401,0 -0.211066,-0.16703 -0.371164,-0.37117 z m -34.739633,-9.5089 c 0.01018,-0.24708 0.06044,-0.29733 0.128146,-0.12814 0.06124,0.15311 0.05371,0.33603 -0.01675,0.40651 -0.07046,0.0705 -0.120603,-0.0548 -0.1114,-0.27837 z m 16.40328,-4.11816 c 0,-2.27471 0.03118,-3.20527 0.06934,-2.06792 0.03816,1.13736 0.03816,2.99848 0,4.13584 -0.03816,1.13736 -0.06934,0.20679 -0.06934,-2.06792 z m -16.332794,-1.69675 c 0,-2.04141 0.03182,-2.87653 0.0707,-1.85582 0.03888,1.0207 0.03888,2.69094 0,3.71164 -0.03888,1.0207 -0.0707,0.18559 -0.0707,-1.85582 z m 15.064158,-7.05213 -0.622944,-0.68931 0.68931,0.62295 c 0.642526,0.58066 0.786793,0.75566 0.622943,0.75566 -0.03647,0 -0.346691,-0.31018 -0.689309,-0.6893 z m -14.303008,0.39713 c 0,-0.044 0.167025,-0.21107 0.371164,-0.37116 0.33639,-0.26382 0.343893,-0.25632 0.08008,0.0801 -0.27707,0.35329 -0.451237,0.46565 -0.451237,0.29108 z m 3.764667,-1.34217 c 0.262473,-0.0506 0.691962,-0.0506 0.954427,0 0.262465,0.0506 0.0477,0.0919 -0.47721,0.0919 -0.524938,0 -0.739682,-0.0414 -0.477217,-0.0919 z m 3.711647,-0.008 c 0.904054,-0.0398 2.383412,-0.0398 3.287457,0 0.904054,0.0398 0.16438,0.0723 -1.643728,0.0723 -1.8081,0 -2.547774,-0.0326 -1.643729,-0.0723 z"
         id="path7"
         sodipodi:nodetypes="ssssssssccssscssscsssssssssssssssscccsssscccssssssssssssssssssssssscssssssssssssssssssssssssssssssssssscssssssssssssssscssssssssssssssssscsscsssssssssssssssssssssssssssssscssssssssssssssssssssssssssssssssssssssssssssssssssssssssssssssssssssssssssssssssssssssssssssssssssssssssssssssssssssssssssssssssssssssssssssssssssssssssssssssscssscscccsssssssscssccssssssssssssssssssssssssssssssssssssssssssssssssssssssssssssssssssssssssssssssssssscssccssssssssssssssssssssssssssssssssssssssssssssssssssssssssssssssssssssssssssssssssssssssssssscssscscccscssscscccsssssssssssssssssssssssssssssssssssssssssssssssssssssssssssssssssssssssssssssssssssssssssssssssssssssssscssscssssssssssssssssssssssssssssssssssssssssssssscsssssssssssssssssssssssssssssssssssssssssssssssssssssssssssssssssssssssssssssssssssssssssssscssssssssssssssssssssssssssssssssssssssssssssssscsscssssssssssssssssssssss" />
      <path
         style="fill:#278d4c;stroke-width:0.801615"
         d="m 43.940644,239.3079 c -1.631135,-0.74059 -1.646486,-0.80633 -1.766311,-7.56331 -0.0954,-5.37941 -0.14454,-6.02253 -0.48925,-6.40309 -0.230809,-0.25482 -1.112691,-0.60603 -2.217557,-0.88314 -7.073687,-1.77413 -14.641771,-6.3338 -20.665005,-12.45038 -2.640738,-2.68167 -3.784026,-4.12126 -6.374687,-8.02686 -5.573303,-8.40213 -8.9984134,-18.95061 -9.7176629,-29.92797 -0.8072508,-12.32039 2.5714701,-26.47028 8.7053509,-36.45748 4.883818,-7.95184 10.759908,-13.67123 18.457356,-17.96515 3.131158,-1.74668 5.078892,-2.54815 8.413435,-3.46205 2.211778,-0.60618 3.397215,-1.0624 3.717813,-1.43083 0.02301,-0.0264 0.09461,-2.77594 0.159064,-6.10992 l 0.117188,-6.06178 0.571288,-0.7484 c 1.057026,-1.38473 1.373856,-1.44438 7.672029,-1.44438 h 5.63409 l 0.757807,0.66537 c 0.4168,0.36596 0.873472,0.86702 1.014829,1.11349 0.176508,0.30776 0.290233,2.28646 0.36306,6.31712 0.125132,6.92497 0.0283,6.65491 2.61115,7.2816 3.514683,0.85278 7.869611,2.62883 11.164739,4.55329 3.979748,2.3243 9.908232,7.50635 12.988319,11.35301 5.432099,6.78405 9.736341,16.24444 11.495406,25.26601 1.643848,8.43068 1.796428,15.11211 0.536986,23.51563 -1.621299,10.81809 -6.346959,21.35123 -13.090805,29.17846 -3.426024,3.97642 -6.381645,6.52713 -10.965258,9.46308 -3.878608,2.48438 -7.572813,4.12716 -11.862594,5.27518 -2.936061,0.78574 -2.752907,0.32395 -2.877943,7.25656 -0.121084,6.71384 -0.181246,6.97631 -1.763843,7.69483 -0.797383,0.36203 -1.435589,0.40287 -6.295727,0.40287 -4.854936,0 -5.498954,-0.0411 -6.293267,-0.40176 z m 11.190568,-30.73723 c 0.361689,-0.44711 0.405048,-0.87145 0.405048,-3.96425 0,-1.90494 0.08706,-3.51735 0.193478,-3.58312 0.106414,-0.0657 1.323307,-0.40272 2.704202,-0.74878 3.346969,-0.83877 6.24379,-2.27417 8.464794,-4.19437 2.047566,-1.77025 3.036167,-3.0295 4.120728,-5.24886 3.50625,-7.17495 1.789286,-16.24597 -3.975002,-21.00062 -2.169893,-1.78982 -4.587108,-2.84337 -12.596008,-5.48998 -9.387999,-3.10233 -10.400792,-3.60125 -11.53293,-5.68137 -1.155304,-2.12266 -0.646895,-5.32431 1.127192,-7.09839 1.302176,-1.30218 3.430016,-1.98493 6.167116,-1.97881 4.172577,0.009 6.812777,1.76251 8.389924,5.57121 0.330041,0.79701 0.791355,1.54323 1.034468,1.67334 0.471342,0.25225 2.327531,0.17445 7.827984,-0.32816 1.790953,-0.16364 3.261645,-0.39966 3.446529,-0.5531 0.758417,-0.62942 0.07399,-4.20841 -1.307603,-6.83758 -1.564256,-2.97678 -5.451714,-6.66071 -8.490174,-8.04564 -0.725101,-0.33051 -2.148778,-0.84156 -3.163735,-1.13569 -1.014966,-0.29412 -1.97264,-0.64038 -2.128177,-0.76946 -0.214448,-0.17798 -0.282786,-1.06847 -0.282786,-3.68478 0,-4.80527 0.421377,-4.45151 -5.302349,-4.45151 -5.720096,0 -5.301075,-0.34943 -5.305604,4.42446 -0.0016,1.88266 -0.08048,3.54473 -0.174889,3.69349 -0.09441,0.14874 -1.071223,0.51008 -2.170718,0.80297 -3.347691,0.89175 -5.587412,2.12082 -7.908706,4.33999 -1.099135,1.05078 -2.391307,2.51353 -2.871499,3.25054 -2.716066,4.16879 -3.295642,10.24351 -1.446202,15.15821 0.880574,2.34003 1.914538,3.89 3.750077,5.62155 2.629563,2.48059 5.203815,3.67536 14.092423,6.54056 6.708848,2.16257 8.565566,2.93764 9.883358,4.12569 1.769229,1.59506 2.351827,4.02506 1.584505,6.60892 -0.89607,3.0174 -4.252634,4.93273 -8.62624,4.92233 -3.244042,-0.008 -5.968476,-0.96411 -7.784063,-2.73255 -1.148643,-1.11881 -1.540192,-1.77661 -2.346464,-3.94198 -0.441298,-1.1852 -0.66785,-1.52273 -1.131505,-1.68579 -0.899773,-0.31644 -10.723795,0.23592 -11.336518,0.6374 -0.617364,0.40451 -0.633845,1.53432 -0.05539,3.79612 1.68134,6.57398 7.27086,11.84366 14.656448,13.81779 0.747114,0.1997 1.477682,0.50877 1.623496,0.68683 0.186961,0.22829 0.265118,1.30028 0.265118,3.63617 0,4.64556 -0.216797,4.47477 5.58661,4.40124 4.136408,-0.0524 4.214886,-0.0618 4.613049,-0.55402 z M 189.90719,170.03038 c -6.05083,-2.07988 -14.2475,-2.32651 -20.68851,-0.62249 -3.40575,0.90102 -4.02313,1.03367 -4.1625,0.89429 -0.29684,-0.29684 -3.24134,-19.68027 -3.40578,-22.41994 -0.1831,-3.05062 0.52544,-5.37414 2.20605,-7.23438 0.42358,-0.46884 2.68619,-2.29576 5.02806,-4.05983 2.34185,-1.76407 5.72453,-4.3874 7.51706,-5.82961 1.79252,-1.44222 3.30237,-2.57899 3.35521,-2.52615 0.0528,0.0528 -0.0203,0.68738 -0.16245,1.41011 -0.48972,2.4892 -0.005,8.08294 1.66318,19.17663 0.0862,0.57356 0.26679,1.07951 0.40124,1.12432 0.42464,0.14155 4.31467,-3.17342 7.18006,-6.11865 3.32713,-3.41984 5.83764,-6.40434 7.59747,-9.03192 0.71999,-1.075 1.3939,-1.95784 1.49758,-1.96187 0.1037,-0.004 0.13291,0.54146 0.0649,1.2122 -0.13697,1.35142 -1.46124,10.40214 -2.45934,16.80846 -0.35441,2.27471 -1.12672,7.45206 -1.71626,11.50522 -1.03856,7.14027 -1.2937,8.44945 -1.64007,8.41553 -0.0904,-0.009 -1.11455,-0.34271 -2.27594,-0.74192 z m 2.71891,-1.522 c 0.18327,-1.0207 0.81718,-5.24402 1.40869,-9.38516 0.59151,-4.14114 1.35388,-9.2473 1.69415,-11.34704 0.34027,-2.09972 0.77137,-4.963 0.958,-6.36282 0.18662,-1.39982 0.52916,-3.67787 0.76119,-5.06233 0.23203,-1.38446 0.3869,-2.62213 0.34415,-2.75038 -0.0427,-0.12825 -0.58647,0.52728 -1.20827,1.45673 -2.65277,3.96531 -9.05987,10.85929 -13.00445,13.99266 l -2.07641,1.64939 0.13027,0.97746 c 0.0717,0.53761 0.36157,2.31366 0.64426,3.94678 0.72781,4.20461 1.5347,9.50624 1.7033,11.19136 0.12282,1.22768 0.20823,1.44907 0.59114,1.5322 2.2718,0.49323 4.29919,1.02544 5.53783,1.45375 2.24519,0.77634 2.13444,0.83324 2.51615,-1.2926 z"
         id="path6"
         sodipodi:nodetypes="sssssssssssscsscsssssssssssssssssssssssssssssssssssscssssssssscssssssssssssssssssssssssssssssssssssssscssssss" />
      <path
         style="fill:#091f36;stroke-width:0.801615"
         d="m 190.10995,169.80074 c -1.23864,-0.42831 -3.26603,-0.96052 -5.53783,-1.45374 -0.38291,-0.0831 -0.46832,-0.30452 -0.59114,-1.5322 -0.1686,-1.68513 -0.97549,-6.98675 -1.7033,-11.19136 -0.28269,-1.63313 -0.5726,-3.40918 -0.64426,-3.94678 l -0.13027,-0.97746 2.07641,-1.64939 c 3.94458,-3.13337 10.35168,-10.02735 13.00445,-13.99266 0.6218,-0.92946 1.16552,-1.58498 1.20827,-1.45673 0.0427,0.12825 -0.11212,1.36592 -0.34415,2.75038 -0.23203,1.38446 -0.57457,3.66251 -0.76119,5.06233 -0.18663,1.39982 -0.61773,4.26309 -0.958,6.36282 -0.34027,2.09974 -1.10264,7.2059 -1.69415,11.34704 -1.45183,10.16417 -1.65376,11.24728 -2.09104,11.21605 -0.19203,-0.0137 -1.01723,-0.25594 -1.8338,-0.5383 z"
         id="path5"
         sodipodi:nodetypes="ssssscsssssssss" />
    </g>
  </g>
</svg>
